<svg width="392" height="288" viewBox="0 0 392 288" fill="none" xmlns="http://www.w3.org/2000/svg">
<g filter="url(#filter0_dd_821_114)">
<rect x="18" y="100.046" width="317" height="155" rx="3" transform="rotate(-15 18 100.046)" fill="white"/>
</g>
<line x1="26.0859" y1="130.223" x2="332.284" y2="48.1775" stroke="#ECF0F1"/>
<path d="M49.3682 217.113L355.567 135.067L363.539 164.821C363.968 166.421 363.018 168.066 361.418 168.495L61.0148 248.988C59.4144 249.416 57.7694 248.467 57.3406 246.866L49.3682 217.113Z" fill="#ECF0F1"/>
<g filter="url(#filter1_dd_821_114)">
<rect x="293.19" y="159.036" width="57.7865" height="19.7872" rx="4" transform="rotate(-15 293.19 159.036)" fill="#221C44"/>
</g>
<path d="M97.3562 155.098C98.2076 158.276 98.3235 161.076 97.7038 163.499C97.0842 165.922 95.8383 167.952 93.9662 169.589C92.1032 171.21 89.7199 172.409 86.8163 173.187L77.9746 175.556L70.6526 148.231L80.1112 145.696C83.0523 144.908 85.6799 144.745 87.9941 145.207C90.3082 145.668 92.2554 146.729 93.8355 148.389C95.4281 150.046 96.6017 152.282 97.3562 155.098ZM89.7622 157.414C89.3182 155.756 88.7266 154.446 87.9875 153.482C87.2575 152.502 86.3784 151.863 85.35 151.564C84.3183 151.253 83.1295 151.278 81.7836 151.639L79.6339 152.215L83.7356 167.522L85.3806 167.081C87.6237 166.48 89.0951 165.392 89.7947 163.815C90.4909 162.226 90.4801 160.093 89.7622 157.414Z" fill="#221C44"/>
<path d="M120.584 141.442L126.258 162.619L120.744 164.096L119.122 161.706L118.692 161.822C118.446 162.649 118.047 163.377 117.494 164.006C116.95 164.619 116.3 165.134 115.544 165.55C114.79 165.979 113.978 166.31 113.105 166.544C111.722 166.914 110.398 166.982 109.133 166.747C107.88 166.508 106.77 165.904 105.802 164.935C104.847 163.962 104.127 162.572 103.643 160.766L99.9471 146.972L107.256 145.014L110.356 156.583C110.723 157.954 111.197 158.949 111.777 159.568C112.366 160.171 113.109 160.353 114.006 160.112C114.929 159.865 115.572 159.426 115.937 158.794C116.314 158.158 116.473 157.328 116.412 156.303C116.351 155.277 116.133 154.067 115.759 152.671L113.275 143.401L120.584 141.442Z" fill="#221C44"/>
<path d="M130.822 130.225L132.584 136.804C132.785 137.552 132.952 138.275 133.086 138.974C133.216 139.66 133.324 140.312 133.41 140.93L133.671 140.86C133.989 139.854 134.51 138.933 135.235 138.098C135.956 137.25 137.033 136.634 138.466 136.25C140.672 135.659 142.723 136.111 144.62 137.606C146.529 139.098 147.958 141.613 148.906 145.152C149.55 147.557 149.769 149.668 149.561 151.487C149.351 153.293 148.772 154.77 147.824 155.919C146.885 157.052 145.65 157.824 144.117 158.234C142.621 158.635 141.413 158.685 140.491 158.385C139.578 158.068 138.767 157.685 138.058 157.233L137.61 157.354L137.007 159.739L131.305 161.266L123.513 132.184L130.822 130.225ZM137.331 142.704C136.658 142.885 136.145 143.189 135.792 143.617C135.44 144.046 135.246 144.619 135.211 145.336C135.173 146.04 135.289 146.897 135.559 147.907L135.835 148.935C136.275 150.579 136.821 151.742 137.471 152.423C138.133 153.1 139.031 153.287 140.165 152.983C141.025 152.752 141.567 152.133 141.791 151.125C142.015 150.117 141.9 148.765 141.446 147.071C140.992 145.376 140.427 144.165 139.751 143.438C139.072 142.698 138.266 142.454 137.331 142.704Z" fill="#221C44"/>
<path d="M157.615 131.52L163.289 152.697L155.98 154.655L150.306 133.478L157.615 131.52ZM151.705 123.969C152.751 123.688 153.719 123.663 154.609 123.892C155.511 124.117 156.136 124.878 156.483 126.174C156.82 127.433 156.656 128.391 155.991 129.05C155.335 129.693 154.484 130.155 153.437 130.436C152.366 130.723 151.391 130.75 150.514 130.518C149.646 130.27 149.044 129.516 148.707 128.258C148.359 126.962 148.501 125.996 149.132 125.359C149.775 124.719 150.633 124.256 151.705 123.969Z" fill="#221C44"/>
<path d="M183.317 124.633L188.992 145.809L183.477 147.287L181.855 144.897L181.425 145.012C181.179 145.839 180.78 146.567 180.227 147.196C179.684 147.809 179.034 148.324 178.277 148.741C177.524 149.169 176.711 149.501 175.839 149.734C174.455 150.105 173.131 150.173 171.866 149.938C170.613 149.699 169.503 149.095 168.535 148.126C167.58 147.153 166.861 145.763 166.376 143.956L162.68 130.163L169.989 128.204L173.089 139.774C173.457 141.144 173.93 142.139 174.51 142.758C175.099 143.362 175.843 143.543 176.74 143.303C177.662 143.056 178.306 142.616 178.67 141.984C179.048 141.349 179.206 140.519 179.145 139.493C179.084 138.468 178.866 137.258 178.493 135.862L176.008 126.591L183.317 124.633Z" fill="#221C44"/>
<path d="M206.781 147.647L195.918 129.463L195.75 129.508C195.936 130.006 196.172 130.684 196.455 131.543C196.751 132.399 197.059 133.324 197.38 134.32C197.7 135.316 197.985 136.281 198.236 137.216L201.416 149.085L194.873 150.838L187.551 123.512L197.384 120.877L208.284 138.75L208.433 138.71L208.824 117.812L218.675 115.172L225.997 142.498L219.211 144.316L216.001 132.335C215.771 131.476 215.536 130.55 215.297 129.559C215.068 128.552 214.855 127.608 214.658 126.726C214.471 125.828 214.328 125.118 214.228 124.597L214.06 124.642L213.809 145.764L206.781 147.647Z" fill="#0066AF"/>
<path d="M248.831 124.981C249.305 126.75 249.483 128.386 249.364 129.886C249.246 131.387 248.85 132.729 248.179 133.91C247.507 135.092 246.582 136.101 245.403 136.937C244.222 137.762 242.809 138.394 241.164 138.835C239.631 139.245 238.159 139.386 236.749 139.257C235.347 139.111 234.048 138.698 232.85 138.017C231.653 137.337 230.609 136.381 229.718 135.151C228.84 133.917 228.164 132.415 227.69 130.646C227.062 128.303 226.955 126.209 227.368 124.362C227.794 122.511 228.685 120.951 230.04 119.679C231.408 118.404 233.195 117.472 235.401 116.881C237.432 116.336 239.353 116.276 241.163 116.699C242.972 117.122 244.543 118.024 245.874 119.403C247.218 120.779 248.204 122.638 248.831 124.981ZM235.111 128.657C235.435 129.866 235.814 130.859 236.25 131.638C236.682 132.403 237.187 132.942 237.765 133.255C238.352 133.552 239.026 133.598 239.786 133.394C240.546 133.191 241.094 132.817 241.429 132.273C241.761 131.717 241.916 131.001 241.895 130.125C241.883 129.233 241.715 128.183 241.392 126.974C241.068 125.766 240.691 124.785 240.262 124.032C239.846 123.275 239.352 122.753 238.781 122.466C238.222 122.175 237.556 122.133 236.784 122.34C235.675 122.637 234.994 123.313 234.743 124.369C234.504 125.421 234.627 126.851 235.111 128.657Z" fill="#0066AF"/>
<path d="M262.548 133.105C260.367 133.689 258.324 133.242 256.418 131.762C254.513 130.283 253.081 127.755 252.123 124.179C251.154 120.566 251.144 117.637 252.092 115.393C253.04 113.149 254.661 111.72 256.954 111.105C257.901 110.852 258.754 110.77 259.513 110.861C260.272 110.951 260.964 111.166 261.589 111.506C262.224 111.83 262.806 112.235 263.337 112.721L263.487 112.68C263.256 112.168 262.978 111.455 262.653 110.54C262.324 109.613 262.04 108.701 261.799 107.804L260.282 102.141L267.647 100.167L275.44 129.25L269.925 130.727L267.639 128.475L267.358 128.551C267.172 129.201 266.885 129.826 266.498 130.424C266.123 131.018 265.611 131.55 264.962 132.017C264.325 132.482 263.52 132.844 262.548 133.105ZM263.992 126.528C265.163 126.214 265.887 125.626 266.164 124.764C266.449 123.886 266.407 122.682 266.037 121.152L265.882 120.573C265.434 118.903 264.855 117.689 264.145 116.931C263.443 116.158 262.451 115.943 261.167 116.287C260.295 116.521 259.686 117.138 259.339 118.139C258.993 119.14 259.059 120.531 259.536 122.313C260.007 124.07 260.638 125.276 261.428 125.933C262.227 126.573 263.082 126.772 263.992 126.528Z" fill="#0066AF"/>
<path d="M285.068 103.572C287.747 102.854 290.02 102.96 291.885 103.889C293.747 104.806 295.006 106.492 295.664 108.947L299.385 122.834L294.319 124.191L292.166 121.763L292.017 121.803C291.619 122.711 291.166 123.487 290.657 124.131C290.157 124.759 289.531 125.287 288.778 125.716C288.028 126.157 287.067 126.535 285.896 126.849C284.674 127.176 283.511 127.221 282.405 126.983C281.3 126.745 280.331 126.196 279.5 125.337C278.669 124.478 278.046 123.276 277.632 121.731C277.025 119.463 277.359 117.571 278.635 116.053C279.912 114.536 282.021 113.31 284.962 112.375L288.465 111.316L288.385 111.017C288.132 110.07 287.714 109.461 287.134 109.189C286.566 108.914 285.89 108.881 285.104 109.092C284.27 109.315 283.375 109.715 282.421 110.291C281.476 110.852 280.548 111.501 279.637 112.239L276.233 107.983C277.287 107.033 278.543 106.189 280.002 105.451C281.46 104.713 283.149 104.087 285.068 103.572ZM289.58 115.325L287.917 115.85C286.585 116.261 285.701 116.751 285.266 117.322C284.841 117.877 284.731 118.54 284.938 119.313C285.132 120.035 285.469 120.519 285.948 120.765C286.425 120.998 286.981 121.029 287.616 120.859C288.501 120.622 289.18 120.139 289.653 119.412C290.138 118.681 290.261 117.867 290.02 116.969L289.58 115.325Z" fill="#0066AF"/>
<path d="M311.666 119.543L304.357 121.501L296.565 92.4187L303.874 90.4602L311.666 119.543Z" fill="#0066AF"/>
<rect x="26.3281" y="107.204" width="164.279" height="12.7792" rx="3" transform="rotate(-15 26.3281 107.204)" fill="black" fill-opacity="0.7"/>
<defs>
<filter id="filter0_dd_821_114" x="-9.32666" y="0.673828" width="400.969" height="286.417" filterUnits="userSpaceOnUse" color-interpolation-filters="sRGB">
<feFlood flood-opacity="0" result="BackgroundImageFix"/>
<feColorMatrix in="SourceAlpha" type="matrix" values="0 0 0 0 0 0 0 0 0 0 0 0 0 0 0 0 0 0 127 0" result="hardAlpha"/>
<feMorphology radius="4" operator="erode" in="SourceAlpha" result="effect1_dropShadow_821_114"/>
<feOffset dy="10"/>
<feGaussianBlur stdDeviation="16"/>
<feColorMatrix type="matrix" values="0 0 0 0 0.0941176 0 0 0 0 0.152941 0 0 0 0 0.294118 0 0 0 0.1 0"/>
<feBlend mode="normal" in2="BackgroundImageFix" result="effect1_dropShadow_821_114"/>
<feColorMatrix in="SourceAlpha" type="matrix" values="0 0 0 0 0 0 0 0 0 0 0 0 0 0 0 0 0 0 127 0" result="hardAlpha"/>
<feMorphology radius="6" operator="erode" in="SourceAlpha" result="effect2_dropShadow_821_114"/>
<feOffset dy="6"/>
<feGaussianBlur stdDeviation="7"/>
<feColorMatrix type="matrix" values="0 0 0 0 0.0941176 0 0 0 0 0.152941 0 0 0 0 0.294118 0 0 0 0.12 0"/>
<feBlend mode="normal" in2="effect1_dropShadow_821_114" result="effect2_dropShadow_821_114"/>
<feBlend mode="normal" in="SourceGraphic" in2="effect2_dropShadow_821_114" result="shape"/>
</filter>
<filter id="filter1_dd_821_114" x="266.088" y="126.978" width="115.143" height="88.2729" filterUnits="userSpaceOnUse" color-interpolation-filters="sRGB">
<feFlood flood-opacity="0" result="BackgroundImageFix"/>
<feColorMatrix in="SourceAlpha" type="matrix" values="0 0 0 0 0 0 0 0 0 0 0 0 0 0 0 0 0 0 127 0" result="hardAlpha"/>
<feMorphology radius="4" operator="erode" in="SourceAlpha" result="effect1_dropShadow_821_114"/>
<feOffset dy="10"/>
<feGaussianBlur stdDeviation="16"/>
<feColorMatrix type="matrix" values="0 0 0 0 0.0941176 0 0 0 0 0.152941 0 0 0 0 0.294118 0 0 0 0.1 0"/>
<feBlend mode="normal" in2="BackgroundImageFix" result="effect1_dropShadow_821_114"/>
<feColorMatrix in="SourceAlpha" type="matrix" values="0 0 0 0 0 0 0 0 0 0 0 0 0 0 0 0 0 0 127 0" result="hardAlpha"/>
<feMorphology radius="6" operator="erode" in="SourceAlpha" result="effect2_dropShadow_821_114"/>
<feOffset dy="6"/>
<feGaussianBlur stdDeviation="7"/>
<feColorMatrix type="matrix" values="0 0 0 0 0.0941176 0 0 0 0 0.152941 0 0 0 0 0.294118 0 0 0 0.12 0"/>
<feBlend mode="normal" in2="effect1_dropShadow_821_114" result="effect2_dropShadow_821_114"/>
<feBlend mode="normal" in="SourceGraphic" in2="effect2_dropShadow_821_114" result="shape"/>
</filter>
</defs>
</svg>
